<svg width="24" height="25" viewBox="0 0 24 25" fill="none" xmlns="http://www.w3.org/2000/svg">
<path d="M9.95002 21.5C9.50002 21.5 9.07086 21.4042 8.66252 21.2125C8.25419 21.0208 7.90836 20.75 7.62502 20.4L1.15002 12.425L1.80002 11.8C2.11669 11.4833 2.49169 11.3 2.92502 11.25C3.35836 11.2 3.75002 11.3 4.10002 11.55L7.00002 13.575V3.5C7.00002 3.21667 7.09586 2.97917 7.28752 2.7875C7.47919 2.59583 7.71669 2.5 8.00002 2.5C8.28336 2.5 8.52086 2.59583 8.71252 2.7875C8.90419 2.97917 9.00002 3.21667 9.00002 3.5V17.425L6.22502 15.475L9.17502 19.125C9.27502 19.2417 9.39169 19.3333 9.52502 19.4C9.65836 19.4667 9.80002 19.5 9.95002 19.5H17C17.55 19.5 18.0209 19.3042 18.4125 18.9125C18.8042 18.5208 19 18.05 19 17.5V10.5C19 10.2167 19.0959 9.97917 19.2875 9.7875C19.4792 9.59583 19.7167 9.5 20 9.5C20.2834 9.5 20.5209 9.59583 20.7125 9.7875C20.9042 9.97917 21 10.2167 21 10.5V17.5C21 18.6 20.6084 19.5417 19.825 20.325C19.0417 21.1083 18.1 21.5 17 21.5H9.95002ZM11 13.5V7.5C11 7.21667 11.0959 6.97917 11.2875 6.7875C11.4792 6.59583 11.7167 6.5 12 6.5C12.2834 6.5 12.5209 6.59583 12.7125 6.7875C12.9042 6.97917 13 7.21667 13 7.5V13.5H11ZM15 13.5V8.5C15 8.21667 15.0959 7.97917 15.2875 7.7875C15.4792 7.59583 15.7167 7.5 16 7.5C16.2834 7.5 16.5209 7.59583 16.7125 7.7875C16.9042 7.97917 17 8.21667 17 8.5V13.5H15Z" fill="#161616"/>
</svg>
