<svg width="226" height="79" viewBox="0 0 226 79" fill="none" xmlns="http://www.w3.org/2000/svg">
<rect width="226" height="79" rx="12" fill="#F10505"/>
<path d="M13.728 60C12.7893 60 12 59.68 11.36 59.04C10.72 58.4 10.4 57.6107 10.4 56.672V13.344C10.4 12.3627 10.72 11.5733 11.36 10.976C12 10.336 12.7893 10.016 13.728 10.016C14.7093 10.016 15.4987 10.336 16.096 10.976C16.736 11.5733 17.056 12.3627 17.056 13.344V56.672C17.056 57.6107 16.736 58.4 16.096 59.04C15.4987 59.68 14.7093 60 13.728 60ZM70.4135 58.976L57.0375 45.6C56.3548 44.9173 56.0135 44.1707 56.0135 43.36C56.0135 42.5067 56.3548 41.7387 57.0375 41.056C57.7202 40.3733 58.4668 40.032 59.2775 40.032C60.1308 40.032 60.8988 40.3733 61.5815 41.056L74.9575 54.496C75.5975 55.1787 75.9175 55.9253 75.9175 56.736C75.9602 57.5467 75.6402 58.2933 74.9575 58.976C74.2748 59.6587 73.5068 60 72.6535 60C71.8428 60 71.0962 59.6587 70.4135 58.976ZM52.9415 60.64C49.1868 60.64 45.7522 60.0213 42.6375 58.784C39.5228 57.504 36.8348 55.7333 34.5735 53.472C32.3548 51.168 30.6268 48.4587 29.3895 45.344C28.1522 42.1867 27.5335 38.7307 27.5335 34.976C27.5335 31.2213 28.1522 27.7867 29.3895 24.672C30.6268 21.5573 32.3548 18.8693 34.5735 16.608C36.8348 14.304 39.5228 12.5333 42.6375 11.296C45.7522 10.016 49.1868 9.376 52.9415 9.376C56.6962 9.376 60.1095 10.016 63.1815 11.296C66.2962 12.5333 68.9842 14.304 71.2455 16.608C73.5068 18.8693 75.2562 21.5573 76.4935 24.672C77.7308 27.7867 78.3495 31.2213 78.3495 34.976C78.3495 38.7307 77.7308 42.1867 76.4935 45.344C75.2562 48.4587 73.5068 51.168 71.2455 53.472C68.9842 55.7333 66.2962 57.504 63.1815 58.784C60.1095 60.0213 56.6962 60.64 52.9415 60.64ZM52.9415 54.624C55.7148 54.624 58.2535 54.1333 60.5575 53.152C62.9042 52.128 64.9308 50.7413 66.6375 48.992C68.3442 47.2 69.6455 45.1093 70.5415 42.72C71.4802 40.3307 71.9495 37.7493 71.9495 34.976C71.9495 32.2027 71.4802 29.6213 70.5415 27.232C69.6455 24.8427 68.3442 22.7733 66.6375 21.024C64.9308 19.232 62.9042 17.8453 60.5575 16.864C58.2535 15.8827 55.7148 15.392 52.9415 15.392C50.1682 15.392 47.6082 15.8827 45.2615 16.864C42.9575 17.8453 40.9522 19.232 39.2455 21.024C37.5815 22.7733 36.2802 24.8427 35.3415 27.232C34.4028 29.6213 33.9335 32.2027 33.9335 34.976C33.9335 37.7493 34.4028 40.3307 35.3415 42.72C36.2802 45.1093 37.5815 47.2 39.2455 48.992C40.9522 50.7413 42.9575 52.128 45.2615 53.152C47.6082 54.1333 50.1682 54.624 52.9415 54.624ZM115.205 60C113.328 60 111.664 59.488 110.213 58.464C108.762 57.44 107.632 56.0533 106.821 54.304C106.01 52.512 105.605 50.464 105.605 48.16V13.216C105.605 12.2773 105.904 11.5093 106.501 10.912C107.098 10.3147 107.866 10.016 108.805 10.016C109.744 10.016 110.512 10.3147 111.109 10.912C111.706 11.5093 112.005 12.2773 112.005 13.216V48.16C112.005 49.7387 112.304 51.04 112.901 52.064C113.498 53.088 114.266 53.6 115.205 53.6H116.805C117.658 53.6 118.341 53.8987 118.853 54.496C119.408 55.0933 119.685 55.8613 119.685 56.8C119.685 57.7387 119.28 58.5067 118.469 59.104C117.658 59.7013 116.613 60 115.333 60H115.205ZM138.727 60.256C135.612 60.256 132.818 59.488 130.343 57.952C127.868 56.3733 125.906 54.2613 124.455 51.616C123.047 48.928 122.343 45.8987 122.343 42.528C122.343 39.1573 123.111 36.128 124.647 33.44C126.226 30.752 128.338 28.64 130.983 27.104C133.671 25.5253 136.679 24.736 140.007 24.736C143.335 24.736 146.322 25.5253 148.967 27.104C151.612 28.64 153.703 30.752 155.239 33.44C156.818 36.128 157.607 39.1573 157.607 42.528H155.111C155.111 45.8987 154.386 48.928 152.935 51.616C151.527 54.2613 149.586 56.3733 147.111 57.952C144.636 59.488 141.842 60.256 138.727 60.256ZM140.007 54.496C142.183 54.496 144.124 53.984 145.831 52.96C147.538 51.8933 148.882 50.464 149.863 48.672C150.844 46.8373 151.335 44.7893 151.335 42.528C151.335 40.224 150.844 38.176 149.863 36.384C148.882 34.5493 147.538 33.12 145.831 32.096C144.124 31.0293 142.183 30.496 140.007 30.496C137.874 30.496 135.932 31.0293 134.183 32.096C132.476 33.12 131.111 34.5493 130.087 36.384C129.106 38.176 128.615 40.224 128.615 42.528C128.615 44.7893 129.106 46.8373 130.087 48.672C131.111 50.464 132.476 51.8933 134.183 52.96C135.932 53.984 137.874 54.496 140.007 54.496ZM154.343 60.064C153.404 60.064 152.615 59.7653 151.975 59.168C151.378 58.528 151.079 57.7387 151.079 56.8V47.008L152.295 40.224L157.607 42.528V56.8C157.607 57.7387 157.287 58.528 156.647 59.168C156.05 59.7653 155.282 60.064 154.343 60.064ZM184.923 60.256C181.595 60.256 178.608 59.488 175.963 57.952C173.317 56.3733 171.227 54.24 169.691 51.552C168.155 48.864 167.365 45.8347 167.323 42.464V13.28C167.323 12.2987 167.621 11.5093 168.219 10.912C168.859 10.3147 169.648 10.016 170.587 10.016C171.568 10.016 172.357 10.3147 172.955 10.912C173.552 11.5093 173.851 12.2987 173.851 13.28V30.56C175.344 28.768 177.136 27.36 179.227 26.336C181.36 25.2693 183.685 24.736 186.203 24.736C189.317 24.736 192.112 25.5253 194.587 27.104C197.061 28.64 199.003 30.752 200.411 33.44C201.861 36.0853 202.587 39.0933 202.587 42.464C202.587 45.8347 201.797 48.864 200.219 51.552C198.683 54.24 196.592 56.3733 193.947 57.952C191.301 59.488 188.293 60.256 184.923 60.256ZM184.923 54.496C187.099 54.496 189.04 53.984 190.747 52.96C192.453 51.8933 193.797 50.4427 194.779 48.608C195.803 46.7733 196.315 44.7253 196.315 42.464C196.315 40.16 195.803 38.112 194.779 36.32C193.797 34.528 192.453 33.12 190.747 32.096C189.04 31.0293 187.099 30.496 184.923 30.496C182.789 30.496 180.848 31.0293 179.099 32.096C177.392 33.12 176.048 34.528 175.067 36.32C174.085 38.112 173.595 40.16 173.595 42.464C173.595 44.7253 174.085 46.7733 175.067 48.608C176.048 50.4427 177.392 51.8933 179.099 52.96C180.848 53.984 182.789 54.496 184.923 54.496ZM214.179 61.024C212.984 61.024 211.939 60.5973 211.043 59.744C210.189 58.848 209.763 57.8027 209.763 56.608C209.763 55.3707 210.189 54.3253 211.043 53.472C211.939 52.576 212.984 52.128 214.179 52.128C215.416 52.128 216.461 52.576 217.315 53.472C218.168 54.3253 218.595 55.3707 218.595 56.608C218.595 57.8027 218.168 58.848 217.315 59.744C216.461 60.5973 215.416 61.024 214.179 61.024Z" fill="white"/>
</svg>
